# Blender v2.78 (sub 0) OBJ File: ''
# www.blender.org
mtllib jin.mtl
o Cylinder_Cylinder.001
v 0.071811 -0.154900 -0.667618
v -0.077211 -2.246823 -0.682295
v -0.077211 -0.002059 -0.529147
v 0.071811 -2.246823 -0.667618
v 0.041934 -0.002059 -0.517413
v 0.215107 -2.246823 -0.624149
v 0.156500 -0.002059 -0.482659
v 0.347168 -2.246823 -0.553561
v 0.262084 -0.002059 -0.426223
v 0.462921 -2.246823 -0.458565
v 0.354630 -0.002059 -0.350273
v 0.557918 -2.246823 -0.342812
v 0.430580 -0.002059 -0.257728
v 0.628506 -2.246823 -0.210750
v 0.487016 -0.002059 -0.152143
v 0.671974 -2.246823 -0.067455
v 0.521769 -0.002059 -0.037577
v 0.686651 -2.246823 0.081567
v 0.533504 -0.002059 0.081567
v 0.671974 -2.246823 0.230589
v 0.521769 -0.002059 0.200712
v 0.628506 -2.246823 0.373885
v 0.487016 -0.002059 0.315277
v 0.557918 -2.246823 0.505946
v 0.430580 -0.002059 0.420862
v 0.462921 -2.246823 0.621699
v 0.354630 -0.002059 0.513407
v 0.347168 -2.246823 0.716695
v 0.262084 -0.002059 0.589358
v 0.215107 -2.246823 0.787284
v 0.156499 -0.002059 0.645794
v 0.071811 -2.246823 0.830752
v 0.041934 -0.002059 0.680547
v -0.077211 -2.246823 0.845429
v -0.077211 -0.002059 0.692282
v -0.226233 -2.246823 0.830752
v -0.196356 -0.002059 0.680547
v -0.369529 -2.246823 0.787284
v -0.310921 -0.002059 0.645794
v -0.501590 -2.246823 0.716695
v -0.416506 -0.002059 0.589358
v -0.617343 -2.246823 0.621699
v -0.509051 -0.002059 0.513407
v -0.712339 -2.246823 0.505946
v -0.585002 -0.002059 0.420862
v -0.782928 -2.246823 0.373884
v -0.641437 -0.002059 0.315277
v -0.826396 -2.246823 0.230589
v -0.676191 -0.002059 0.200711
v -0.841073 -2.246823 0.081566
v -0.687925 -0.002059 0.081567
v -0.826395 -2.246823 -0.067456
v -0.676190 -0.002059 -0.037578
v -0.782927 -2.246823 -0.210751
v -0.641437 -0.002059 -0.152144
v -0.712339 -2.246823 -0.342813
v -0.585001 -0.002059 -0.257728
v -0.617342 -2.246823 -0.458566
v -0.509051 -0.002059 -0.350274
v -0.501589 -2.246823 -0.553562
v -0.416505 -0.002059 -0.426224
v -0.369527 -2.246823 -0.624150
v -0.310920 -0.002059 -0.482660
v -0.226232 -2.246823 -0.667618
v -0.196354 -0.002059 -0.517413
v -0.077211 -0.002174 -0.682295
v 0.071811 -0.002174 -0.667618
v 0.215107 -0.002174 -0.624149
v 0.347168 -0.002174 -0.553561
v 0.462921 -0.002174 -0.458565
v 0.557918 -0.002174 -0.342812
v 0.628506 -0.002174 -0.210750
v 0.671974 -0.002174 -0.067455
v 0.686651 -0.002174 0.081567
v 0.671974 -0.002174 0.230589
v 0.628506 -0.002174 0.373885
v 0.557918 -0.002174 0.505946
v 0.462921 -0.002174 0.621699
v 0.347168 -0.002174 0.716695
v 0.215107 -0.002174 0.787284
v 0.071811 -0.002174 0.830752
v -0.077211 -0.002174 0.845429
v -0.226233 -0.002174 0.830752
v -0.369529 -0.002174 0.787284
v -0.501590 -0.002174 0.716695
v -0.617343 -0.002174 0.621699
v -0.712339 -0.002174 0.505946
v -0.782928 -0.002174 0.373884
v -0.826396 -0.002174 0.230589
v -0.841073 -0.002174 0.081566
v -0.826395 -0.002174 -0.067456
v -0.782927 -0.002174 -0.210751
v -0.712339 -0.002174 -0.342813
v -0.617342 -0.002174 -0.458566
v -0.501589 -0.002174 -0.553562
v -0.369527 -0.002174 -0.624150
v -0.226232 -0.002174 -0.667618
v -0.077211 -2.245911 -0.529147
v 0.041934 -2.245911 -0.517413
v 0.156500 -2.245911 -0.482659
v 0.262084 -2.245911 -0.426223
v 0.354630 -2.245911 -0.350273
v 0.430580 -2.245911 -0.257728
v 0.487016 -2.245911 -0.152143
v 0.521769 -2.245911 -0.037577
v 0.533504 -2.245911 0.081567
v 0.521769 -2.245911 0.200712
v 0.487016 -2.245911 0.315277
v 0.430580 -2.245911 0.420862
v 0.354630 -2.245911 0.513407
v 0.262084 -2.245911 0.589358
v 0.156499 -2.245911 0.645794
v 0.041934 -2.245911 0.680547
v -0.077211 -2.245911 0.692282
v -0.196356 -2.245911 0.680547
v -0.310921 -2.245911 0.645794
v -0.416506 -2.245911 0.589358
v -0.509051 -2.245911 0.513407
v -0.585002 -2.245911 0.420862
v -0.641437 -2.245911 0.315277
v -0.676191 -2.245911 0.200711
v -0.687925 -2.245911 0.081567
v -0.676190 -2.245911 -0.037578
v -0.641437 -2.245911 -0.152144
v -0.585001 -2.245911 -0.257728
v -0.509051 -2.245911 -0.350274
v -0.416505 -2.245911 -0.426224
v -0.310920 -2.245911 -0.482660
v -0.196354 -2.245911 -0.517413
v 0.215107 -0.154900 -0.624149
v 0.347168 -0.154900 -0.553561
v 0.462921 -0.154900 -0.458565
v 0.557918 -0.154900 -0.342812
v 0.628506 -0.154900 -0.210750
v 0.671974 -0.154900 -0.067455
v 0.686651 -0.154900 0.081567
v 0.671974 -0.154900 0.230589
v 0.628506 -0.154900 0.373885
v 0.557918 -0.154900 0.505946
v 0.462921 -0.154900 0.621699
v 0.347168 -0.154900 0.716695
v 0.215107 -0.154900 0.787284
v 0.071811 -0.154900 0.830752
v -0.077211 -0.154900 0.845429
v -0.226233 -0.154900 0.830752
v -0.369529 -0.154900 0.787284
v -0.501590 -0.154900 0.716695
v -0.617343 -0.154900 0.621699
v -0.712339 -0.154900 0.505946
v -0.782928 -0.154900 0.373884
v -0.826396 -0.154900 0.230589
v -0.841073 -0.154900 0.081566
v -0.826395 -0.154900 -0.067456
v -0.782927 -0.154900 -0.210751
v -0.712339 -0.154900 -0.342813
v -0.617342 -0.154900 -0.458566
v -0.501589 -0.154900 -0.553562
v -0.369527 -0.154900 -0.624150
v -0.226232 -0.154900 -0.667618
v -0.077211 -0.154900 -0.682295
vn 0.0006 -1.0000 0.0060
vn 0.0001 1.0000 -0.0007
vn 0.0028 -1.0000 -0.0053
vn 0.0002 1.0000 -0.0007
vn 0.0060 -1.0000 0.0006
vn 0.0004 1.0000 -0.0007
vn 0.0057 -1.0000 0.0017
vn 0.0005 1.0000 -0.0006
vn 0.0980 0.0000 -0.9952
vn 0.0006 1.0000 -0.0005
vn -0.0057 -1.0000 0.0017
vn 0.0007 1.0000 -0.0004
vn 0.0007 1.0000 -0.0002
vn -0.0053 -1.0000 0.0028
vn 0.0007 1.0000 -0.0001
vn 0.0053 -1.0000 0.0028
vn 0.0007 1.0000 0.0001
vn 0.0007 1.0000 0.0002
vn 0.0007 1.0000 0.0004
vn -0.0046 -1.0000 0.0038
vn 0.0006 1.0000 0.0005
vn 0.0046 -1.0000 0.0038
vn 0.0005 1.0000 0.0006
vn -0.0028 -1.0000 -0.0053
vn 0.0004 1.0000 0.0007
vn -0.0038 -1.0000 0.0046
vn 0.0002 1.0000 0.0007
vn 0.0001 1.0000 0.0007
vn 0.0038 -1.0000 0.0046
vn -0.0001 1.0000 0.0007
vn -0.0028 -1.0000 0.0053
vn -0.0002 1.0000 0.0007
vn -0.0004 1.0000 0.0007
vn -0.0005 1.0000 0.0006
vn 0.0028 -1.0000 0.0053
vn -0.0006 1.0000 0.0005
vn -0.0007 1.0000 0.0004
vn -0.0006 -1.0000 0.0060
vn -0.0007 1.0000 0.0002
vn -0.0007 1.0000 0.0001
vn 0.0017 -1.0000 0.0057
vn -0.0007 1.0000 -0.0001
vn -0.0007 1.0000 -0.0002
vn 0.0017 -1.0000 -0.0057
vn -0.0007 1.0000 -0.0004
vn -0.0006 1.0000 -0.0005
vn -0.0017 -1.0000 0.0057
vn -0.0005 1.0000 -0.0006
vn -0.0017 -1.0000 -0.0057
vn -0.0004 1.0000 -0.0007
vn -0.0002 1.0000 -0.0007
vn -0.0060 -1.0000 0.0006
vn -0.0001 1.0000 -0.0007
vn 0.0060 -1.0000 -0.0006
vn -0.0060 -1.0000 -0.0006
vn 0.0057 -1.0000 -0.0017
vn -0.0057 -1.0000 -0.0017
vn 0.0053 -1.0000 -0.0028
vn -0.0053 -1.0000 -0.0028
vn 0.0046 -1.0000 -0.0038
vn -0.0046 -1.0000 -0.0038
vn 0.0038 -1.0000 -0.0046
vn -0.0038 -1.0000 -0.0046
vn 0.0006 -1.0000 -0.0060
vn -0.0006 -1.0000 -0.0060
vn 0.2903 0.0000 -0.9569
vn 0.4714 0.0000 -0.8819
vn 0.6344 0.0000 -0.7730
vn 0.7730 0.0000 -0.6344
vn 0.8819 0.0000 -0.4714
vn 0.9569 0.0000 -0.2903
vn 0.9952 0.0000 -0.0980
vn 0.9952 0.0000 0.0980
vn 0.9569 0.0000 0.2903
vn 0.8819 0.0000 0.4714
vn 0.7730 0.0000 0.6344
vn 0.6344 0.0000 0.7730
vn 0.4714 0.0000 0.8819
vn 0.2903 0.0000 0.9569
vn 0.0980 0.0000 0.9952
vn -0.0980 0.0000 0.9952
vn -0.2903 0.0000 0.9569
vn -0.4714 0.0000 0.8819
vn -0.6344 0.0000 0.7730
vn -0.7730 0.0000 0.6344
vn -0.8819 0.0000 0.4714
vn -0.9569 0.0000 0.2903
vn -0.9952 0.0000 0.0980
vn -0.9952 0.0000 -0.0980
vn -0.9569 0.0000 -0.2903
vn -0.8819 0.0000 -0.4714
vn -0.7730 0.0000 -0.6344
vn -0.6344 0.0000 -0.7730
vn -0.4714 0.0000 -0.8819
vn -0.2903 0.0000 -0.9569
vn -0.0980 0.0000 -0.9952
g Cylinder_Cylinder.001_Material.002
usemtl Material.002
s off
f 129//1 64//1 2//1
f 66//2 3//2 5//2 67//2
f 38//3 40//3 117//3
f 67//4 5//4 7//4 68//4
f 123//5 122//5 52//5
f 68//6 7//6 9//6 69//6
f 123//7 52//7 54//7
f 69//8 9//8 11//8 70//8
f 2//9 160//9 1//9 4//9
f 70//10 11//10 13//10 71//10
f 16//11 105//11 14//11
f 71//12 13//12 15//12 72//12
f 124//7 123//7 54//7
f 72//13 15//13 17//13 73//13
f 14//14 104//14 103//14
f 73//15 17//15 19//15 74//15
f 124//16 54//16 125//16
f 74//17 19//17 21//17 75//17
f 14//14 103//14 12//14
f 75//18 21//18 23//18 76//18
f 125//16 54//16 56//16
f 76//19 23//19 25//19 77//19
f 12//20 103//20 102//20
f 77//21 25//21 27//21 78//21
f 125//22 56//22 126//22
f 78//23 27//23 29//23 79//23
f 28//24 112//24 111//24
f 79//25 29//25 31//25 80//25
f 101//26 8//26 102//26
f 80//27 31//27 33//27 81//27
f 12//20 102//20 10//20
f 81//28 33//28 35//28 82//28
f 58//29 60//29 126//29
f 82//30 35//30 37//30 83//30
f 100//31 6//31 101//31
f 83//32 37//32 39//32 84//32
f 122//5 50//5 52//5
f 84//33 39//33 41//33 85//33
f 6//31 8//31 101//31
f 85//34 41//34 43//34 86//34
f 60//35 128//35 127//35
f 86//36 43//36 45//36 87//36
f 60//29 127//29 126//29
f 87//37 45//37 47//37 88//37
f 99//38 98//38 4//38
f 88//39 47//39 49//39 89//39
f 60//35 62//35 128//35
f 89//40 49//40 51//40 90//40
f 129//41 62//41 64//41
f 90//42 51//42 53//42 91//42
f 62//41 129//41 128//41
f 91//43 53//43 55//43 92//43
f 36//44 38//44 116//44
f 92//45 55//45 57//45 93//45
f 8//26 10//26 102//26
f 93//46 57//46 59//46 94//46
f 6//47 99//47 4//47
f 94//48 59//48 61//48 95//48
f 113//49 30//49 32//49
f 95//50 61//50 63//50 96//50
f 4//38 98//38 2//38
f 96//51 63//51 65//51 97//51
f 18//52 106//52 16//52
f 97//53 65//53 3//53 66//53
f 122//54 48//54 50//54
f 121//54 48//54 122//54
f 18//55 107//55 106//55
f 20//55 107//55 18//55
f 120//56 48//56 121//56
f 20//57 108//57 107//57
f 120//56 46//56 48//56
f 22//57 108//57 20//57
f 119//58 46//58 120//58
f 22//59 109//59 108//59
f 119//58 44//58 46//58
f 24//59 109//59 22//59
f 118//60 42//60 119//60
f 24//61 110//61 109//61
f 106//52 105//52 16//52
f 26//61 110//61 24//61
f 117//62 42//62 118//62
f 26//63 111//63 110//63
f 116//3 38//3 117//3
f 26//63 28//63 111//63
f 115//64 114//64 36//64
f 40//62 42//62 117//62
f 115//44 36//44 116//44
f 28//24 30//24 112//24
f 30//49 113//49 112//49
f 99//47 6//47 100//47
f 114//65 32//65 34//65
f 98//1 129//1 2//1
f 114//65 113//65 32//65
f 42//60 44//60 119//60
f 126//22 56//22 58//22
f 36//64 114//64 34//64
f 105//11 104//11 14//11
f 4//66 1//66 130//66 6//66
f 6//67 130//67 131//67 8//67
f 8//68 131//68 132//68 10//68
f 10//69 132//69 133//69 12//69
f 12//70 133//70 134//70 14//70
f 14//71 134//71 135//71 16//71
f 16//72 135//72 136//72 18//72
f 18//73 136//73 137//73 20//73
f 20//74 137//74 138//74 22//74
f 22//75 138//75 139//75 24//75
f 24//76 139//76 140//76 26//76
f 26//77 140//77 141//77 28//77
f 28//78 141//78 142//78 30//78
f 30//79 142//79 143//79 32//79
f 32//80 143//80 144//80 34//80
f 34//81 144//81 145//81 36//81
f 36//82 145//82 146//82 38//82
f 38//83 146//83 147//83 40//83
f 40//84 147//84 148//84 42//84
f 42//85 148//85 149//85 44//85
f 44//86 149//86 150//86 46//86
f 46//87 150//87 151//87 48//87
f 48//88 151//88 152//88 50//88
f 50//89 152//89 153//89 52//89
f 52//90 153//90 154//90 54//90
f 54//91 154//91 155//91 56//91
f 56//92 155//92 156//92 58//92
f 58//93 156//93 157//93 60//93
f 60//94 157//94 158//94 62//94
f 62//95 158//95 159//95 64//95
f 64//96 159//96 160//96 2//96
g Cylinder_Cylinder.001_Material.003
usemtl Material.003
f 3//80 65//80 129//80 98//80
f 7//82 5//82 99//82 100//82
f 23//90 21//90 107//90 108//90
f 39//66 37//66 115//66 116//66
f 55//74 53//74 123//74 124//74
f 17//87 15//87 104//87 105//87
f 33//95 31//95 112//95 113//95
f 49//71 47//71 120//71 121//71
f 65//79 63//79 128//79 129//79
f 11//84 9//84 101//84 102//84
f 27//92 25//92 109//92 110//92
f 43//68 41//68 117//68 118//68
f 59//76 57//76 125//76 126//76
f 21//89 19//89 106//89 107//89
f 37//9 35//9 114//9 115//9
f 53//73 51//73 122//73 123//73
f 5//81 3//81 98//81 99//81
f 15//86 13//86 103//86 104//86
f 31//94 29//94 111//94 112//94
f 47//70 45//70 119//70 120//70
f 63//78 61//78 127//78 128//78
f 9//83 7//83 100//83 101//83
f 25//91 23//91 108//91 109//91
f 41//67 39//67 116//67 117//67
f 57//75 55//75 124//75 125//75
f 19//88 17//88 105//88 106//88
f 35//96 33//96 113//96 114//96
f 51//72 49//72 121//72 122//72
f 13//85 11//85 102//85 103//85
f 29//93 27//93 110//93 111//93
f 45//69 43//69 118//69 119//69
f 61//77 59//77 126//77 127//77
f 159//96 97//96 66//96 160//96
f 158//95 96//95 97//95 159//95
f 157//94 95//94 96//94 158//94
f 156//93 94//93 95//93 157//93
f 155//92 93//92 94//92 156//92
f 154//91 92//91 93//91 155//91
f 153//90 91//90 92//90 154//90
f 152//89 90//89 91//89 153//89
f 151//88 89//88 90//88 152//88
f 150//87 88//87 89//87 151//87
f 149//86 87//86 88//86 150//86
f 148//85 86//85 87//85 149//85
f 147//84 85//84 86//84 148//84
f 146//83 84//83 85//83 147//83
f 145//82 83//82 84//82 146//82
f 144//81 82//81 83//81 145//81
f 143//80 81//80 82//80 144//80
f 142//79 80//79 81//79 143//79
f 141//78 79//78 80//78 142//78
f 140//77 78//77 79//77 141//77
f 139//76 77//76 78//76 140//76
f 138//75 76//75 77//75 139//75
f 137//74 75//74 76//74 138//74
f 136//73 74//73 75//73 137//73
f 135//72 73//72 74//72 136//72
f 134//71 72//71 73//71 135//71
f 133//70 71//70 72//70 134//70
f 132//69 70//69 71//69 133//69
f 131//68 69//68 70//68 132//68
f 130//67 68//67 69//67 131//67
f 1//66 67//66 68//66 130//66
f 160//9 66//9 67//9 1//9
