# Blender v2.78 (sub 0) OBJ File: ''
# www.blender.org
mtllib men.mtl
o Cube_Cube_Material.001
v -4.917552 11.663062 -1.032533
v -4.917552 10.000896 -1.032534
v -6.930799 10.000896 -1.032534
v -6.930799 11.663062 -1.032533
v 4.854062 11.663062 -1.032533
v 4.854062 11.663061 0.967467
v 6.854062 11.663061 0.967467
v 6.854062 11.663062 -1.032533
v 6.854062 1.690073 -1.032537
v 6.854062 1.690073 0.967463
v 6.854062 0.027907 0.967463
v 6.854062 0.027908 -1.032537
v 4.854062 0.027907 0.967463
v 4.854062 0.027908 -1.032537
v 4.854062 1.690073 -1.032537
v 4.854062 1.690073 0.967463
v 4.854062 10.000896 0.967466
v 6.854062 10.000896 0.967466
v 4.854062 8.338732 0.967466
v 6.854062 8.338732 0.967466
v 4.854062 6.676567 0.967465
v 6.854062 6.676567 0.967465
v 4.854062 5.014402 0.967464
v 6.854062 5.014402 0.967464
v 4.854062 3.352237 0.967464
v 6.854062 3.352237 0.967464
v 6.854062 10.000896 -1.032534
v 4.854062 10.000896 -1.032534
v 6.854062 8.338732 -1.032534
v 4.854062 8.338732 -1.032534
v 6.854062 6.676567 -1.032535
v 4.854062 6.676567 -1.032535
v 6.854062 5.014403 -1.032536
v 4.854062 5.014403 -1.032536
v 6.854062 3.352238 -1.032536
v 4.854062 3.352238 -1.032536
v -6.930799 10.000896 0.967466
v -6.930799 11.663061 0.967467
v -6.930799 0.097974 -1.032537
v -6.930799 0.097973 0.967463
v -4.917552 10.000896 0.967466
v -4.917552 11.663061 0.967467
v 2.939022 11.663062 -1.032533
v 2.939022 11.663061 0.967467
v 0.974878 11.663062 -1.032533
v 0.974878 11.663061 0.967467
v -0.989265 11.663062 -1.032533
v -0.989265 11.663061 0.967467
v -2.953408 11.663062 -1.032533
v -2.953409 11.663061 0.967467
v 2.939022 10.000896 0.967466
v 0.974878 10.000896 0.967466
v -0.989265 10.000896 0.967466
v -2.953409 10.000896 0.967466
v 2.939022 10.000896 -1.032534
v 0.974878 10.000896 -1.032534
v -0.989265 10.000896 -1.032534
v -2.953409 10.000896 -1.032534
v -4.917552 0.097974 -1.032537
v -4.917552 0.097973 0.967463
vn 0.0000 0.0000 -1.0000
vn 0.0000 1.0000 0.0000
vn 1.0000 0.0000 0.0000
vn 0.0000 -1.0000 -0.0000
vn 0.0000 -0.0000 1.0000
vn -1.0000 0.0000 0.0000
g Cube_Cube_Material.001_Cube_Cube_Material.001_Material.004
usemtl Material.004
s 1
f 1//1 2//1 3//1 4//1
f 5//2 6//2 7//2 8//2
f 9//3 10//3 11//3 12//3
f 12//4 11//4 13//4 14//4
f 15//1 9//1 12//1 14//1
f 10//5 16//5 13//5 11//5
f 7//5 6//5 17//5 18//5
f 18//5 17//5 19//5 20//5
f 20//5 19//5 21//5 22//5
f 22//5 21//5 23//5 24//5
f 24//5 23//5 25//5 26//5
f 26//5 25//5 16//5 10//5
f 5//1 8//1 27//1 28//1
f 28//1 27//1 29//1 30//1
f 30//1 29//1 31//1 32//1
f 32//1 31//1 33//1 34//1
f 34//1 33//1 35//1 36//1
f 36//1 35//1 9//1 15//1
f 8//3 7//3 18//3 27//3
f 27//3 18//3 20//3 29//3
f 29//3 20//3 22//3 31//3
f 31//3 22//3 24//3 33//3
f 33//3 24//3 26//3 35//3
f 35//3 26//3 10//3 9//3
f 14//6 13//6 16//6 15//6
f 15//6 16//6 25//6 36//6
f 36//6 25//6 23//6 34//6
f 34//6 23//6 21//6 32//6
f 32//6 21//6 19//6 30//6
f 30//6 19//6 17//6 28//6
f 3//6 37//6 38//6 4//6
f 37//6 3//6 39//6 40//6
f 41//5 42//5 38//5 37//5
f 42//2 1//2 4//2 38//2
f 6//2 5//2 43//2 44//2
f 44//2 43//2 45//2 46//2
f 46//2 45//2 47//2 48//2
f 48//2 47//2 49//2 50//2
f 50//2 49//2 1//2 42//2
f 17//5 6//5 44//5 51//5
f 51//5 44//5 46//5 52//5
f 52//5 46//5 48//5 53//5
f 53//5 48//5 50//5 54//5
f 54//5 50//5 42//5 41//5
f 28//4 17//4 51//4 55//4
f 55//4 51//4 52//4 56//4
f 56//4 52//4 53//4 57//4
f 57//4 53//4 54//4 58//4
f 58//4 54//4 41//4 2//4
f 5//1 28//1 55//1 43//1
f 43//1 55//1 56//1 45//1
f 45//1 56//1 57//1 47//1
f 47//1 57//1 58//1 49//1
f 49//1 58//1 2//1 1//1
f 59//4 60//4 40//4 39//4
f 41//5 37//5 40//5 60//5
f 3//1 2//1 59//1 39//1
f 2//3 41//3 60//3 59//3
