# Blender v2.78 (sub 0) OBJ File: ''
# www.blender.org
mtllib 129.mtl
o Cylinder.001_Cylinder.004_Material.002
v -0.143401 2.055295 -0.016013
v 0.838214 2.070444 0.174254
v 0.856547 2.064275 -0.020824
v 0.782158 2.076031 0.362020
v 0.690534 2.080821 0.535258
v 0.566862 2.084630 0.687311
v 0.415895 2.087312 0.812336
v 0.243435 2.088763 0.905528
v 0.056108 2.088928 0.963305
v -0.138885 2.087801 0.983448
v -0.334052 2.085424 0.965182
v -0.521892 2.081890 0.909210
v -0.695188 2.077333 0.817681
v -0.847278 2.071930 0.694114
v -0.972319 2.065887 0.543257
v -1.065505 2.059438 0.370908
v -1.123255 2.052829 0.183690
v -1.143349 2.046315 -0.011203
v -1.125017 2.040145 -0.206281
v -1.068961 2.034559 -0.394047
v -0.977337 2.029768 -0.567285
v -0.853664 2.025959 -0.719338
v -0.702697 2.023278 -0.844363
v -0.530236 2.021826 -0.937555
v -0.342910 2.021661 -0.995332
v -0.147916 2.022788 -1.015475
v 0.047251 2.025165 -0.997208
v 0.235091 2.028699 -0.941235
v 0.408386 2.033256 -0.849707
v 0.560476 2.038659 -0.726140
v 0.685517 2.044702 -0.575283
v 0.778702 2.051151 -0.402933
v 0.836452 2.057760 -0.215715
vn -0.0091 0.9994 -0.0325
g Cylinder.001_Cylinder.004_Material.002_Cylinder.001_Cylinder.004_Material.002_Material.002
usemtl Material.002
s 1
f 1//1 2//1 3//1
f 1//1 4//1 2//1
f 1//1 5//1 4//1
f 1//1 6//1 5//1
f 1//1 7//1 6//1
f 1//1 8//1 7//1
f 1//1 9//1 8//1
f 1//1 10//1 9//1
f 1//1 11//1 10//1
f 1//1 12//1 11//1
f 1//1 13//1 12//1
f 1//1 14//1 13//1
f 1//1 15//1 14//1
f 1//1 16//1 15//1
f 1//1 17//1 16//1
f 1//1 18//1 17//1
f 1//1 19//1 18//1
f 1//1 20//1 19//1
f 1//1 21//1 20//1
f 1//1 22//1 21//1
f 1//1 23//1 22//1
f 1//1 24//1 23//1
f 1//1 25//1 24//1
f 1//1 26//1 25//1
f 1//1 27//1 26//1
f 1//1 28//1 27//1
f 1//1 29//1 28//1
f 1//1 30//1 29//1
f 1//1 31//1 30//1
f 1//1 32//1 31//1
f 1//1 33//1 32//1
f 1//1 3//1 33//1
o Cylinder.001_Cylinder.004_Material.001
v -0.125138 0.056432 0.048915
v 0.874810 0.065412 0.044105
v 0.856477 0.071581 0.239182
v 0.856547 2.064275 -0.020824
v 0.838214 2.070444 0.174254
v 0.800421 0.077168 0.426948
v 0.782158 2.076031 0.362020
v 0.708797 0.081958 0.600186
v 0.690534 2.080821 0.535258
v 0.585125 0.085767 0.752239
v 0.566862 2.084630 0.687311
v 0.434158 0.088449 0.877264
v 0.415895 2.087312 0.812336
v 0.261697 0.089901 0.970456
v 0.243435 2.088763 0.905528
v 0.074371 0.090066 1.028233
v 0.056108 2.088928 0.963305
v -0.120622 0.088938 1.048376
v -0.138885 2.087801 0.983448
v -0.315789 0.086562 1.030110
v -0.334052 2.085424 0.965182
v -0.503630 0.083028 0.974138
v -0.521892 2.081890 0.909210
v -0.676925 0.078471 0.882609
v -0.695188 2.077333 0.817681
v -0.829015 0.073068 0.759042
v -0.847278 2.071930 0.694114
v -0.954056 0.067025 0.608185
v -0.972319 2.065887 0.543257
v -1.047242 0.060575 0.435836
v -1.065505 2.059438 0.370908
v -1.104992 0.053966 0.248618
v -1.123255 2.052829 0.183690
v -1.125086 0.047452 0.053725
v -1.143349 2.046315 -0.011203
v -1.106754 0.041283 -0.141353
v -1.125017 2.040145 -0.206281
v -1.050698 0.035696 -0.329119
v -1.068961 2.034559 -0.394047
v -0.959074 0.030906 -0.502357
v -0.977337 2.029768 -0.567285
v -0.835401 0.027097 -0.654410
v -0.853664 2.025959 -0.719338
v -0.684434 0.024415 -0.779435
v -0.702697 2.023278 -0.844363
v -0.511974 0.022964 -0.872627
v -0.530236 2.021826 -0.937555
v -0.324647 0.022799 -0.930404
v -0.342910 2.021661 -0.995332
v -0.129653 0.023926 -0.950547
v -0.147916 2.022788 -1.015475
v 0.065514 0.026302 -0.932280
v 0.047251 2.025165 -0.997208
v 0.253354 0.029837 -0.876307
v 0.235091 2.028699 -0.941235
v 0.426649 0.034393 -0.784779
v 0.408386 2.033256 -0.849707
v 0.578739 0.039797 -0.661212
v 0.560476 2.038659 -0.726140
v 0.703780 0.045839 -0.510355
v 0.685517 2.044702 -0.575283
v 0.796965 0.052289 -0.338005
v 0.778702 2.051151 -0.402933
v 0.854715 0.058898 -0.150787
v 0.836452 2.057760 -0.215715
vn 0.0091 -0.9994 0.0325
vn 0.9956 0.0121 0.0932
vn 0.9582 0.0180 0.2855
vn 0.8840 0.0232 0.4669
vn 0.7758 0.0276 0.6303
vn 0.6379 0.0308 0.7695
vn 0.4754 0.0329 0.8792
vn 0.2946 0.0337 0.9550
vn 0.1025 0.0332 0.9942
vn -0.0935 0.0315 0.9951
vn -0.2859 0.0285 0.9578
vn -0.4674 0.0244 0.8837
vn -0.6309 0.0194 0.7756
vn -0.7701 0.0137 0.6378
vn -0.8797 0.0074 0.4754
vn -0.9556 0.0008 0.2947
vn -0.9947 -0.0058 0.1027
vn -0.9956 -0.0121 -0.0932
vn -0.9582 -0.0180 -0.2855
vn -0.8840 -0.0232 -0.4669
vn -0.7758 -0.0276 -0.6303
vn -0.6379 -0.0308 -0.7695
vn -0.4754 -0.0329 -0.8792
vn -0.2946 -0.0337 -0.9550
vn -0.1025 -0.0332 -0.9942
vn 0.0935 -0.0315 -0.9951
vn 0.2860 -0.0285 -0.9578
vn 0.4674 -0.0244 -0.8837
vn 0.6309 -0.0194 -0.7756
vn 0.7701 -0.0137 -0.6378
vn 0.8797 -0.0074 -0.4754
vn 0.9556 -0.0008 -0.2947
vn 0.9947 0.0058 -0.1028
g Cylinder.001_Cylinder.004_Material.001_Cylinder.001_Cylinder.004_Material.001_Material.001
usemtl Material.001
s 1
f 34//2 35//2 36//2
f 35//3 37//3 38//3 36//3
f 34//2 36//2 39//2
f 36//4 38//4 40//4 39//4
f 34//2 39//2 41//2
f 39//5 40//5 42//5 41//5
f 34//2 41//2 43//2
f 41//6 42//6 44//6 43//6
f 34//2 43//2 45//2
f 43//7 44//7 46//7 45//7
f 34//2 45//2 47//2
f 45//8 46//8 48//8 47//8
f 34//2 47//2 49//2
f 47//9 48//9 50//9 49//9
f 34//2 49//2 51//2
f 49//10 50//10 52//10 51//10
f 34//2 51//2 53//2
f 51//11 52//11 54//11 53//11
f 34//2 53//2 55//2
f 53//12 54//12 56//12 55//12
f 34//2 55//2 57//2
f 55//13 56//13 58//13 57//13
f 34//2 57//2 59//2
f 57//14 58//14 60//14 59//14
f 34//2 59//2 61//2
f 59//15 60//15 62//15 61//15
f 34//2 61//2 63//2
f 61//16 62//16 64//16 63//16
f 34//2 63//2 65//2
f 63//17 64//17 66//17 65//17
f 34//2 65//2 67//2
f 65//18 66//18 68//18 67//18
f 34//2 67//2 69//2
f 67//19 68//19 70//19 69//19
f 34//2 69//2 71//2
f 69//20 70//20 72//20 71//20
f 34//2 71//2 73//2
f 71//21 72//21 74//21 73//21
f 34//2 73//2 75//2
f 73//22 74//22 76//22 75//22
f 34//2 75//2 77//2
f 75//23 76//23 78//23 77//23
f 34//2 77//2 79//2
f 77//24 78//24 80//24 79//24
f 34//2 79//2 81//2
f 79//25 80//25 82//25 81//25
f 34//2 81//2 83//2
f 81//26 82//26 84//26 83//26
f 34//2 83//2 85//2
f 83//27 84//27 86//27 85//27
f 34//2 85//2 87//2
f 85//28 86//28 88//28 87//28
f 34//2 87//2 89//2
f 87//29 88//29 90//29 89//29
f 34//2 89//2 91//2
f 89//30 90//30 92//30 91//30
f 34//2 91//2 93//2
f 91//31 92//31 94//31 93//31
f 34//2 93//2 95//2
f 93//32 94//32 96//32 95//32
f 34//2 95//2 97//2
f 95//33 96//33 98//33 97//33
f 34//2 97//2 35//2
f 97//34 98//34 37//34 35//34
o Cylinder.003_Cylinder.006_Material.002
v 2.643077 2.080318 -0.029418
v 3.624693 2.095467 0.160850
v 3.643025 2.089298 -0.034228
v 3.568637 2.101054 0.348615
v 3.477013 2.105844 0.521854
v 3.353341 2.109653 0.673907
v 3.202374 2.112335 0.798932
v 3.029913 2.113787 0.892123
v 2.842587 2.113952 0.949901
v 2.647593 2.112824 0.970044
v 2.452426 2.110448 0.951778
v 2.264586 2.106914 0.895805
v 2.091291 2.102357 0.804277
v 1.939201 2.096954 0.680710
v 1.814160 2.090911 0.529853
v 1.720974 2.084461 0.357504
v 1.663224 2.077852 0.170285
v 1.643129 2.071338 -0.024608
v 1.661462 2.065169 -0.219685
v 1.717518 2.059582 -0.407451
v 1.809142 2.054792 -0.580689
v 1.932814 2.050983 -0.732743
v 2.083781 2.048301 -0.857767
v 2.256242 2.046850 -0.950959
v 2.443569 2.046685 -1.008736
v 2.638562 2.047812 -1.028879
v 2.833729 2.050189 -1.010613
v 3.021570 2.053723 -0.954640
v 3.194865 2.058279 -0.863111
v 3.346955 2.063683 -0.739544
v 3.471996 2.069725 -0.588687
v 3.565181 2.076175 -0.416338
v 3.622931 2.082784 -0.229119
vn -0.0091 0.9994 -0.0325
g Cylinder.003_Cylinder.006_Material.002_Cylinder.003_Cylinder.006_Material.002_Material.002
usemtl Material.002
s 1
f 99//35 100//35 101//35
f 99//35 102//35 100//35
f 99//35 103//35 102//35
f 99//35 104//35 103//35
f 99//35 105//35 104//35
f 99//35 106//35 105//35
f 99//35 107//35 106//35
f 99//35 108//35 107//35
f 99//35 109//35 108//35
f 99//35 110//35 109//35
f 99//35 111//35 110//35
f 99//35 112//35 111//35
f 99//35 113//35 112//35
f 99//35 114//35 113//35
f 99//35 115//35 114//35
f 99//35 116//35 115//35
f 99//35 117//35 116//35
f 99//35 118//35 117//35
f 99//35 119//35 118//35
f 99//35 120//35 119//35
f 99//35 121//35 120//35
f 99//35 122//35 121//35
f 99//35 123//35 122//35
f 99//35 124//35 123//35
f 99//35 125//35 124//35
f 99//35 126//35 125//35
f 99//35 127//35 126//35
f 99//35 128//35 127//35
f 99//35 129//35 128//35
f 99//35 130//35 129//35
f 99//35 131//35 130//35
f 99//35 101//35 131//35
o Cylinder.002_Cylinder.005_Material.001
v -2.951783 0.031048 0.062513
v -1.951835 0.040028 0.057702
v -1.970168 0.046197 0.252780
v -1.970098 2.038890 -0.007226
v -1.988431 2.045059 0.187852
v -2.026224 0.051784 0.440546
v -2.044487 2.050646 0.375618
v -2.117848 0.056574 0.613784
v -2.136111 2.055436 0.548856
v -2.241520 0.060383 0.765837
v -2.259783 2.059245 0.700909
v -2.392487 0.063065 0.890862
v -2.410750 2.061927 0.825934
v -2.564948 0.064516 0.984054
v -2.583210 2.063378 0.919126
v -2.752274 0.064681 1.041831
v -2.770537 2.063544 0.976903
v -2.947267 0.063554 1.061974
v -2.965530 2.062417 0.997046
v -3.142434 0.061177 1.043708
v -3.160697 2.060040 0.978780
v -3.330275 0.057643 0.987735
v -3.348537 2.056506 0.922807
v -3.503570 0.053087 0.896207
v -3.521833 2.051949 0.831279
v -3.655660 0.047683 0.772640
v -3.673923 2.046546 0.707712
v -3.780701 0.041641 0.621783
v -3.798964 2.040503 0.556855
v -3.873887 0.035191 0.449434
v -3.892150 2.034053 0.384506
v -3.931637 0.028582 0.262215
v -3.949900 2.027444 0.197287
v -3.951731 0.022068 0.067323
v -3.969995 2.020930 0.002395
v -3.933399 0.015899 -0.127755
v -3.951662 2.014761 -0.192683
v -3.877343 0.010312 -0.315521
v -3.895606 2.009174 -0.380449
v -3.785718 0.005522 -0.488759
v -3.803982 2.004384 -0.553687
v -3.662046 0.001713 -0.640812
v -3.680309 2.000575 -0.705740
v -3.511079 -0.000969 -0.765837
v -3.529342 1.997893 -0.830765
v -3.338619 -0.002421 -0.859029
v -3.356881 1.996442 -0.923957
v -3.151292 -0.002586 -0.916806
v -3.169555 1.996277 -0.981734
v -2.956299 -0.001459 -0.936949
v -2.974561 1.997404 -1.001877
v -2.761132 0.000918 -0.918683
v -2.779394 1.999780 -0.983611
v -2.573291 0.004452 -0.862710
v -2.591554 2.003315 -0.927638
v -2.399996 0.009009 -0.771181
v -2.418259 2.007871 -0.836109
v -2.247906 0.014412 -0.647614
v -2.266169 2.013275 -0.712542
v -2.122865 0.020455 -0.496757
v -2.141128 2.019317 -0.561685
v -2.029680 0.026905 -0.324408
v -2.047942 2.025767 -0.389336
v -1.971930 0.033514 -0.137189
v -1.990193 2.032376 -0.202117
vn 0.0091 -0.9994 0.0325
vn 0.9956 0.0121 0.0932
vn 0.9582 0.0180 0.2855
vn 0.8840 0.0232 0.4669
vn 0.7758 0.0276 0.6303
vn 0.6379 0.0308 0.7695
vn 0.4754 0.0329 0.8792
vn 0.2946 0.0337 0.9550
vn 0.1025 0.0332 0.9942
vn -0.0935 0.0315 0.9951
vn -0.2859 0.0285 0.9578
vn -0.4674 0.0244 0.8837
vn -0.6309 0.0194 0.7756
vn -0.7701 0.0137 0.6378
vn -0.8797 0.0074 0.4754
vn -0.9556 0.0008 0.2947
vn -0.9947 -0.0058 0.1028
vn -0.9956 -0.0121 -0.0932
vn -0.9582 -0.0180 -0.2855
vn -0.8840 -0.0232 -0.4669
vn -0.7758 -0.0276 -0.6303
vn -0.6379 -0.0308 -0.7695
vn -0.4754 -0.0329 -0.8792
vn -0.2946 -0.0337 -0.9550
vn -0.1025 -0.0332 -0.9942
vn 0.0935 -0.0315 -0.9951
vn 0.2859 -0.0285 -0.9578
vn 0.4674 -0.0244 -0.8837
vn 0.6309 -0.0194 -0.7756
vn 0.7701 -0.0137 -0.6378
vn 0.8797 -0.0074 -0.4754
vn 0.9556 -0.0008 -0.2947
vn 0.9947 0.0058 -0.1028
g Cylinder.002_Cylinder.005_Material.001_Cylinder.002_Cylinder.005_Material.001_Material.001
usemtl Material.001
s 1
f 132//36 133//36 134//36
f 133//37 135//37 136//37 134//37
f 132//36 134//36 137//36
f 134//38 136//38 138//38 137//38
f 132//36 137//36 139//36
f 137//39 138//39 140//39 139//39
f 132//36 139//36 141//36
f 139//40 140//40 142//40 141//40
f 132//36 141//36 143//36
f 141//41 142//41 144//41 143//41
f 132//36 143//36 145//36
f 143//42 144//42 146//42 145//42
f 132//36 145//36 147//36
f 145//43 146//43 148//43 147//43
f 132//36 147//36 149//36
f 147//44 148//44 150//44 149//44
f 132//36 149//36 151//36
f 149//45 150//45 152//45 151//45
f 132//36 151//36 153//36
f 151//46 152//46 154//46 153//46
f 132//36 153//36 155//36
f 153//47 154//47 156//47 155//47
f 132//36 155//36 157//36
f 155//48 156//48 158//48 157//48
f 132//36 157//36 159//36
f 157//49 158//49 160//49 159//49
f 132//36 159//36 161//36
f 159//50 160//50 162//50 161//50
f 132//36 161//36 163//36
f 161//51 162//51 164//51 163//51
f 132//36 163//36 165//36
f 163//52 164//52 166//52 165//52
f 132//36 165//36 167//36
f 165//53 166//53 168//53 167//53
f 132//36 167//36 169//36
f 167//54 168//54 170//54 169//54
f 132//36 169//36 171//36
f 169//55 170//55 172//55 171//55
f 132//36 171//36 173//36
f 171//56 172//56 174//56 173//56
f 132//36 173//36 175//36
f 173//57 174//57 176//57 175//57
f 132//36 175//36 177//36
f 175//58 176//58 178//58 177//58
f 132//36 177//36 179//36
f 177//59 178//59 180//59 179//59
f 132//36 179//36 181//36
f 179//60 180//60 182//60 181//60
f 132//36 181//36 183//36
f 181//61 182//61 184//61 183//61
f 132//36 183//36 185//36
f 183//62 184//62 186//62 185//62
f 132//36 185//36 187//36
f 185//63 186//63 188//63 187//63
f 132//36 187//36 189//36
f 187//64 188//64 190//64 189//64
f 132//36 189//36 191//36
f 189//65 190//65 192//65 191//65
f 132//36 191//36 193//36
f 191//66 192//66 194//66 193//66
f 132//36 193//36 195//36
f 193//67 194//67 196//67 195//67
f 132//36 195//36 133//36
f 195//68 196//68 135//68 133//68
o Cylinder.002_Cylinder.005_Material.002
v -2.970046 2.029910 -0.002415
v -1.988431 2.045059 0.187852
v -1.970098 2.038890 -0.007226
v -2.044487 2.050646 0.375618
v -2.136111 2.055436 0.548856
v -2.259783 2.059245 0.700909
v -2.410750 2.061927 0.825934
v -2.583210 2.063378 0.919126
v -2.770537 2.063544 0.976903
v -2.965530 2.062417 0.997046
v -3.160697 2.060040 0.978780
v -3.348537 2.056506 0.922807
v -3.521833 2.051949 0.831279
v -3.673923 2.046546 0.707712
v -3.798964 2.040503 0.556855
v -3.892150 2.034053 0.384506
v -3.949900 2.027444 0.197287
v -3.969995 2.020930 0.002395
v -3.951662 2.014761 -0.192683
v -3.895606 2.009174 -0.380449
v -3.803982 2.004384 -0.553687
v -3.680309 2.000575 -0.705740
v -3.529342 1.997893 -0.830765
v -3.356881 1.996442 -0.923957
v -3.169555 1.996277 -0.981734
v -2.974561 1.997404 -1.001877
v -2.779394 1.999780 -0.983611
v -2.591554 2.003315 -0.927638
v -2.418259 2.007871 -0.836109
v -2.266169 2.013275 -0.712542
v -2.141128 2.019317 -0.561685
v -2.047942 2.025767 -0.389336
v -1.990193 2.032376 -0.202117
vn -0.0091 0.9994 -0.0325
g Cylinder.002_Cylinder.005_Material.002_Cylinder.002_Cylinder.005_Material.002_Material.002
usemtl Material.002
s 1
f 197//69 198//69 199//69
f 197//69 200//69 198//69
f 197//69 201//69 200//69
f 197//69 202//69 201//69
f 197//69 203//69 202//69
f 197//69 204//69 203//69
f 197//69 205//69 204//69
f 197//69 206//69 205//69
f 197//69 207//69 206//69
f 197//69 208//69 207//69
f 197//69 209//69 208//69
f 197//69 210//69 209//69
f 197//69 211//69 210//69
f 197//69 212//69 211//69
f 197//69 213//69 212//69
f 197//69 214//69 213//69
f 197//69 215//69 214//69
f 197//69 216//69 215//69
f 197//69 217//69 216//69
f 197//69 218//69 217//69
f 197//69 219//69 218//69
f 197//69 220//69 219//69
f 197//69 221//69 220//69
f 197//69 222//69 221//69
f 197//69 223//69 222//69
f 197//69 224//69 223//69
f 197//69 225//69 224//69
f 197//69 226//69 225//69
f 197//69 227//69 226//69
f 197//69 228//69 227//69
f 197//69 229//69 228//69
f 197//69 199//69 229//69
o Plane_Plane_Material.003
v 2.726582 2.135321 -0.658475
v 2.729712 2.157850 0.034224
v 3.192688 2.162008 0.031997
v 3.189558 2.139479 -0.660702
v -3.438313 2.079958 -0.628819
v -3.435183 2.102487 0.063881
v -3.069675 2.105769 0.062123
v -3.072805 2.083240 -0.630577
v -2.655433 2.109489 0.060130
v -2.658563 2.086960 -0.632570
v -2.241191 2.113209 0.058137
v -2.244321 2.090680 -0.634562
v -1.826949 2.116930 0.056144
v -1.830079 2.094400 -0.636555
v -1.412707 2.120650 0.054152
v -1.415837 2.098120 -0.638548
v -0.998465 2.124370 0.052159
v -1.001595 2.101840 -0.640541
v -0.584224 2.128090 0.050166
v -0.587354 2.105561 -0.642533
v -0.169982 2.131810 0.048173
v -0.173112 2.109281 -0.644526
v 0.244260 2.135530 0.046181
v 0.241130 2.113001 -0.646519
v 0.658502 2.139250 0.044188
v 0.655372 2.116721 -0.648512
v 1.072744 2.142970 0.042195
v 1.069614 2.120441 -0.650504
v 1.486986 2.146690 0.040202
v 1.483856 2.124161 -0.652497
v 1.901228 2.150410 0.038210
v 1.898098 2.127881 -0.654490
v 2.315470 2.154130 0.036217
v 2.312340 2.131601 -0.656482
v -3.432677 2.120520 0.618337
v -3.067170 2.123802 0.616579
v -0.581718 2.146123 0.604622
v -0.167476 2.149843 0.602629
v 2.732217 2.175883 0.588680
v 3.195193 2.180041 0.586453
v 2.317975 2.172163 0.590673
v -2.652928 2.127522 0.614586
v 0.246766 2.153563 0.600637
vn -0.0091 0.9994 -0.0325
g Plane_Plane_Material.003_Plane_Plane_Material.003_Material.003
usemtl Material.003
s 1
f 230//70 231//70 232//70 233//70
f 234//70 235//70 236//70 237//70
f 237//70 236//70 238//70 239//70
f 239//70 238//70 240//70 241//70
f 241//70 240//70 242//70 243//70
f 243//70 242//70 244//70 245//70
f 245//70 244//70 246//70 247//70
f 247//70 246//70 248//70 249//70
f 249//70 248//70 250//70 251//70
f 251//70 250//70 252//70 253//70
f 253//70 252//70 254//70 255//70
f 255//70 254//70 256//70 257//70
f 257//70 256//70 258//70 259//70
f 259//70 258//70 260//70 261//70
f 261//70 260//70 262//70 263//70
f 263//70 262//70 231//70 230//70
f 236//70 235//70 264//70 265//70
f 250//70 248//70 266//70 267//70
f 232//70 231//70 268//70 269//70
f 231//70 262//70 270//70 268//70
f 238//70 236//70 265//70 271//70
f 252//70 250//70 267//70 272//70
o Cylinder.003_Cylinder.006_Material.001
v 2.661340 0.081456 0.035510
v 3.661288 0.090436 0.030700
v 3.642956 0.096605 0.225778
v 3.643025 2.089298 -0.034228
v 3.624693 2.095467 0.160850
v 3.586900 0.102192 0.413544
v 3.568637 2.101054 0.348615
v 3.495276 0.106982 0.586782
v 3.477013 2.105844 0.521854
v 3.371604 0.110791 0.738835
v 3.353341 2.109653 0.673907
v 3.220637 0.113473 0.863860
v 3.202374 2.112335 0.798932
v 3.048176 0.114924 0.957051
v 3.029913 2.113787 0.892123
v 2.860850 0.115089 1.014829
v 2.842587 2.113952 0.949901
v 2.665856 0.113962 1.034972
v 2.647593 2.112824 0.970044
v 2.470690 0.111586 1.016706
v 2.452426 2.110448 0.951778
v 2.282849 0.108051 0.960733
v 2.264586 2.106914 0.895805
v 2.109554 0.103495 0.869205
v 2.091291 2.102357 0.804277
v 1.957464 0.098091 0.745638
v 1.939201 2.096954 0.680710
v 1.832423 0.092049 0.594781
v 1.814160 2.090911 0.529853
v 1.739237 0.085599 0.422432
v 1.720974 2.084461 0.357504
v 1.681487 0.078990 0.235213
v 1.663224 2.077852 0.170285
v 1.661392 0.072476 0.040320
v 1.643129 2.071338 -0.024608
v 1.679725 0.066307 -0.154757
v 1.661462 2.065169 -0.219685
v 1.735781 0.060720 -0.342523
v 1.717518 2.059582 -0.407451
v 1.827405 0.055930 -0.515761
v 1.809142 2.054792 -0.580689
v 1.951077 0.052121 -0.667815
v 1.932814 2.050983 -0.732743
v 2.102045 0.049439 -0.792839
v 2.083781 2.048301 -0.857767
v 2.274505 0.047988 -0.886031
v 2.256242 2.046850 -0.950959
v 2.461832 0.047822 -0.943808
v 2.443569 2.046685 -1.008736
v 2.656825 0.048950 -0.963951
v 2.638562 2.047812 -1.028879
v 2.851992 0.051326 -0.945685
v 2.833729 2.050189 -1.010613
v 3.039833 0.054860 -0.889712
v 3.021570 2.053723 -0.954640
v 3.213128 0.059417 -0.798183
v 3.194865 2.058279 -0.863111
v 3.365218 0.064820 -0.674616
v 3.346955 2.063683 -0.739544
v 3.490258 0.070863 -0.523759
v 3.471996 2.069725 -0.588687
v 3.583444 0.077313 -0.351410
v 3.565181 2.076175 -0.416338
v 3.641194 0.083922 -0.164191
v 3.622931 2.082784 -0.229119
vn 0.0091 -0.9994 0.0325
vn 0.9956 0.0121 0.0932
vn 0.9582 0.0180 0.2855
vn 0.8840 0.0232 0.4669
vn 0.7758 0.0276 0.6303
vn 0.6379 0.0308 0.7695
vn 0.4754 0.0329 0.8792
vn 0.2946 0.0337 0.9550
vn 0.1025 0.0332 0.9942
vn -0.0935 0.0315 0.9951
vn -0.2859 0.0285 0.9578
vn -0.4674 0.0244 0.8837
vn -0.6309 0.0194 0.7756
vn -0.7701 0.0137 0.6378
vn -0.8797 0.0074 0.4754
vn -0.9556 0.0008 0.2947
vn -0.9947 -0.0058 0.1028
vn -0.9956 -0.0121 -0.0932
vn -0.9582 -0.0180 -0.2855
vn -0.8840 -0.0232 -0.4669
vn -0.7758 -0.0276 -0.6303
vn -0.6378 -0.0308 -0.7695
vn -0.4754 -0.0329 -0.8792
vn -0.2946 -0.0337 -0.9550
vn -0.1025 -0.0332 -0.9942
vn 0.0935 -0.0315 -0.9951
vn 0.2859 -0.0285 -0.9578
vn 0.4674 -0.0244 -0.8837
vn 0.6309 -0.0194 -0.7756
vn 0.7701 -0.0137 -0.6378
vn 0.8797 -0.0074 -0.4754
vn 0.9556 -0.0008 -0.2947
vn 0.9947 0.0058 -0.1027
g Cylinder.003_Cylinder.006_Material.001_Cylinder.003_Cylinder.006_Material.001_Material.001
usemtl Material.001
s 1
f 273//71 274//71 275//71
f 274//72 276//72 277//72 275//72
f 273//71 275//71 278//71
f 275//73 277//73 279//73 278//73
f 273//71 278//71 280//71
f 278//74 279//74 281//74 280//74
f 273//71 280//71 282//71
f 280//75 281//75 283//75 282//75
f 273//71 282//71 284//71
f 282//76 283//76 285//76 284//76
f 273//71 284//71 286//71
f 284//77 285//77 287//77 286//77
f 273//71 286//71 288//71
f 286//78 287//78 289//78 288//78
f 273//71 288//71 290//71
f 288//79 289//79 291//79 290//79
f 273//71 290//71 292//71
f 290//80 291//80 293//80 292//80
f 273//71 292//71 294//71
f 292//81 293//81 295//81 294//81
f 273//71 294//71 296//71
f 294//82 295//82 297//82 296//82
f 273//71 296//71 298//71
f 296//83 297//83 299//83 298//83
f 273//71 298//71 300//71
f 298//84 299//84 301//84 300//84
f 273//71 300//71 302//71
f 300//85 301//85 303//85 302//85
f 273//71 302//71 304//71
f 302//86 303//86 305//86 304//86
f 273//71 304//71 306//71
f 304//87 305//87 307//87 306//87
f 273//71 306//71 308//71
f 306//88 307//88 309//88 308//88
f 273//71 308//71 310//71
f 308//89 309//89 311//89 310//89
f 273//71 310//71 312//71
f 310//90 311//90 313//90 312//90
f 273//71 312//71 314//71
f 312//91 313//91 315//91 314//91
f 273//71 314//71 316//71
f 314//92 315//92 317//92 316//92
f 273//71 316//71 318//71
f 316//93 317//93 319//93 318//93
f 273//71 318//71 320//71
f 318//94 319//94 321//94 320//94
f 273//71 320//71 322//71
f 320//95 321//95 323//95 322//95
f 273//71 322//71 324//71
f 322//96 323//96 325//96 324//96
f 273//71 324//71 326//71
f 324//97 325//97 327//97 326//97
f 273//71 326//71 328//71
f 326//98 327//98 329//98 328//98
f 273//71 328//71 330//71
f 328//99 329//99 331//99 330//99
f 273//71 330//71 332//71
f 330//100 331//100 333//100 332//100
f 273//71 332//71 334//71
f 332//101 333//101 335//101 334//101
f 273//71 334//71 336//71
f 334//102 335//102 337//102 336//102
f 273//71 336//71 274//71
f 336//103 337//103 276//103 274//103
